<?xml version="1.0" ?><svg data-name="Layer 10" id="Layer_10" viewBox="0 0 32 32" xmlns="http://www.w3.org/2000/svg"><title/><circle cx="16" cy="16" r="9" style="fill:#a9e5ff"/><path d="M16,6A10,10,0,1,0,26,16,10.011,10.011,0,0,0,16,6Zm0,18a8,8,0,1,1,8-8A8.009,8.009,0,0,1,16,24Z" style="fill:#158fcc"/><path d="M16,5a1,1,0,0,0,1-1V3a1,1,0,0,0-2,0V4A1,1,0,0,0,16,5Z" style="fill:#158fcc"/><path d="M16,27a1,1,0,0,0-1,1v1a1,1,0,0,0,2,0V28A1,1,0,0,0,16,27Z" style="fill:#158fcc"/><path d="M29,15H28a1,1,0,0,0,0,2h1A1,1,0,0,0,29,15Z" style="fill:#158fcc"/><path d="M4,15H3a1,1,0,0,0,0,2H4A1,1,0,0,0,4,15Z" style="fill:#158fcc"/><path d="M24.485,6.1l-0.707.707a1,1,0,1,0,1.414,1.414L25.9,7.515A1,1,0,0,0,24.485,6.1Z" style="fill:#158fcc"/><path d="M6.808,23.778L6.1,24.485A1,1,0,1,0,7.515,25.9l0.707-.707A1,1,0,0,0,6.808,23.778Z" style="fill:#158fcc"/><path d="M25.192,23.778a1,1,0,0,0-1.414,1.414L24.485,25.9A1,1,0,0,0,25.9,24.485Z" style="fill:#158fcc"/><path d="M6.808,8.222A1,1,0,0,0,8.222,6.808L7.515,6.1A1,1,0,0,0,6.1,7.515Z" style="fill:#158fcc"/></svg>