<?xml version="1.0" ?><svg data-name="Layer 11" id="Layer_11" viewBox="0 0 32 32" xmlns="http://www.w3.org/2000/svg"><title/><path d="M24,18.194A8.175,8.175,0,1,1,13.806,8a7.929,7.929,0,0,0-.354,2.371,8.178,8.178,0,0,0,8.177,8.177A7.929,7.929,0,0,0,24,18.194Z" style="fill:#a9e5ff"/><path d="M16,5a1,1,0,0,0,1-1V3a1,1,0,0,0-2,0V4A1,1,0,0,0,16,5Z" style="fill:#158fcc"/><path d="M16,27a1,1,0,0,0-1,1v1a1,1,0,0,0,2,0V28A1,1,0,0,0,16,27Z" style="fill:#158fcc"/><path d="M29,15H28a1,1,0,0,0,0,2h1A1,1,0,0,0,29,15Z" style="fill:#158fcc"/><path d="M4,15H3a1,1,0,0,0,0,2H4A1,1,0,0,0,4,15Z" style="fill:#158fcc"/><path d="M24.485,6.1l-0.707.707a1,1,0,1,0,1.414,1.414L25.9,7.515A1,1,0,0,0,24.485,6.1Z" style="fill:#158fcc"/><path d="M6.808,23.778L6.1,24.485A1,1,0,1,0,7.515,25.9l0.707-.707A1,1,0,0,0,6.808,23.778Z" style="fill:#158fcc"/><path d="M25.192,23.778a1,1,0,0,0-1.414,1.414L24.485,25.9A1,1,0,0,0,25.9,24.485Z" style="fill:#158fcc"/><path d="M6.808,8.222A1,1,0,0,0,8.222,6.808L7.515,6.1A1,1,0,0,0,6.1,7.515Z" style="fill:#158fcc"/><path d="M24.7,17.483a1,1,0,0,0-1-.243,6.917,6.917,0,0,1-2.072.308,7.185,7.185,0,0,1-7.178-7.177A6.911,6.911,0,0,1,14.76,8.3a1,1,0,0,0-1.241-1.257,9.176,9.176,0,1,0,11.439,11.44A1,1,0,0,0,24.7,17.483ZM16.177,23a7.176,7.176,0,0,1-3.7-13.324q-0.025.345-.025,0.7a9.188,9.188,0,0,0,9.178,9.177c0.233,0,.466-0.009.7-0.026A7.225,7.225,0,0,1,16.177,23Z" style="fill:#158fcc"/></svg>