<?xml version="1.0" ?><svg data-name="Layer 3" id="Layer_3" viewBox="0 0 32 32" xmlns="http://www.w3.org/2000/svg"><title/><circle cx="19" cy="13" r="6" style="fill:#a9e5ff"/><path d="M29,23a6,6,0,0,1-6,6H7.5a4.5,4.5,0,0,1-.21-8.99,7,7,0,1,1,13.67-2.65A5.762,5.762,0,0,1,23,17,6,6,0,0,1,29,23Z" style="fill:#a9e5ff"/><path d="M25.145,16.339a6.988,6.988,0,1,0-12.506-6.215A8.007,8.007,0,0,0,6,18a8.154,8.154,0,0,0,.087,1.188A5.5,5.5,0,0,0,7.5,30H23A7,7,0,0,0,25.145,16.339ZM19,8a4.974,4.974,0,0,1,3.972,8,7.016,7.016,0,0,0-1.2.1,7.912,7.912,0,0,0-6.81-6.044A5,5,0,0,1,19,8Zm4,20H7.5a3.5,3.5,0,0,1-.164-6.991,1,1,0,0,0,.913-1.284A6.015,6.015,0,0,1,13.4,12.031h0A6.036,6.036,0,0,1,14,12a5.942,5.942,0,0,1,5.964,5.446,1,1,0,0,0,1.347.85A4.8,4.8,0,0,1,23,18,5,5,0,0,1,23,28Z" style="fill:#158fcc"/><path d="M19,5a1,1,0,0,0,1-1V3a1,1,0,0,0-2,0V4A1,1,0,0,0,19,5Z" style="fill:#158fcc"/><path d="M28,14h1a1,1,0,0,0,0-2H28A1,1,0,0,0,28,14Z" style="fill:#158fcc"/><path d="M25.364,7.636a1,1,0,0,0,.707-0.293l0.708-.708a1,1,0,0,0-1.414-1.414l-0.708.708A1,1,0,0,0,25.364,7.636Z" style="fill:#158fcc"/><path d="M11.929,7.343a1,1,0,0,0,1.414-1.414l-0.708-.708a1,1,0,0,0-1.414,1.414Z" style="fill:#158fcc"/></svg>