<?xml version="1.0" ?><svg data-name="Layer 12" id="Layer_12" viewBox="0 0 32 32" xmlns="http://www.w3.org/2000/svg"><title/><path d="M15.09,10.986A7.16,7.16,0,0,1,20.08,3a6.938,6.938,0,0,0-.31,2.075,7.156,7.156,0,0,0,7.155,7.155A6.938,6.938,0,0,0,29,11.92,7.146,7.146,0,0,1,22.155,17Z" style="fill:#a9e5ff"/><path d="M29,23a6,6,0,0,1-6,6H7.5a4.5,4.5,0,0,1-.21-8.99,7,7,0,1,1,13.67-2.65A5.762,5.762,0,0,1,23,17,6,6,0,0,1,29,23Z" style="fill:#a9e5ff"/><path d="M26.3,16.83a8.125,8.125,0,0,0,3.658-4.623A1,1,0,0,0,28.7,10.966a5.939,5.939,0,0,1-1.776.264A6.162,6.162,0,0,1,20.77,5.075,5.939,5.939,0,0,1,21.034,3.3a1,1,0,0,0-1.241-1.257A8.193,8.193,0,0,0,14,9.845c0,0.052.011,0.1,0.012,0.156H14a8.009,8.009,0,0,0-8,8,8.154,8.154,0,0,0,.087,1.188A5.5,5.5,0,0,0,7.5,30H23A7,7,0,0,0,26.3,16.83ZM16,9.845A6.194,6.194,0,0,1,18.778,4.7q-0.008.185-.008,0.373a8.164,8.164,0,0,0,8.155,8.155q0.188,0,.373-0.008A6.194,6.194,0,0,1,22.155,16a1,1,0,0,0-.393.081,7.907,7.907,0,0,0-5.73-5.825C16.023,10.118,16,9.983,16,9.845ZM23,28H7.5a3.5,3.5,0,0,1-.164-6.991,1,1,0,0,0,.913-1.284A6.014,6.014,0,0,1,14,12a5.942,5.942,0,0,1,5.964,5.446,1,1,0,0,0,1.347.85A4.8,4.8,0,0,1,23,18,5,5,0,0,1,23,28Z" style="fill:#158fcc"/></svg>