<?xml version="1.0" ?><svg data-name="Layer 2" id="Layer_2" viewBox="0 0 32 32" xmlns="http://www.w3.org/2000/svg"><title/><path d="M29,19a6,6,0,0,1-6,6H7.5a4.5,4.5,0,0,1-.21-8.99,7,7,0,1,1,13.67-2.65A5.762,5.762,0,0,1,23,13,6,6,0,0,1,29,19Z" style="fill:#a9e5ff"/><path d="M23,12a7.015,7.015,0,0,0-1.23.107A7.929,7.929,0,0,0,14,6a8.009,8.009,0,0,0-8,8,8.154,8.154,0,0,0,.087,1.188A5.5,5.5,0,0,0,7.5,26H23A7,7,0,0,0,23,12Zm0,12H7.5a3.5,3.5,0,0,1-.164-6.991,1,1,0,0,0,.913-1.284A6.014,6.014,0,0,1,14,8a5.942,5.942,0,0,1,5.964,5.446,1,1,0,0,0,1.347.85A4.8,4.8,0,0,1,23,14,5,5,0,0,1,23,24Z" style="fill:#158fcc"/></svg>