<?xml version="1.0" ?><svg data-name="Layer 9" id="Layer_9" viewBox="0 0 32 32" xmlns="http://www.w3.org/2000/svg"><title/><path d="M17,8.792A6.2,6.2,0,0,1,20.964,3,6.215,6.215,0,0,0,29,11.035,6.2,6.2,0,0,1,26.595,14S25,16.25,21,15,17,8.792,17,8.792Z" style="fill:#a9e5ff"/><path d="M29,19a5,5,0,0,1-5,5H6.5a3.5,3.5,0,0,1,0-7,3.08,3.08,0,0,1,.53.04A4.881,4.881,0,0,1,7,16.5a7.493,7.493,0,0,1,14.73-1.95A4.943,4.943,0,0,1,24,14,5,5,0,0,1,29,19Z" style="fill:#a9e5ff"/><path d="M5.895,26.553a1,1,0,1,0-1.789.895l1,2a1,1,0,0,0,1.789-.895Z" style="fill:#158fcc"/><path d="M26.895,26.553a1,1,0,1,0-1.789.895l1,2a1,1,0,0,0,1.789-.895Z" style="fill:#158fcc"/><path d="M16.895,26.553a1,1,0,1,0-1.789.895l1,2a1,1,0,0,0,1.789-.895Z" style="fill:#158fcc"/><path d="M27.78,14.346A7.239,7.239,0,0,0,29.934,11.4,1,1,0,0,0,28.641,10.1,5.214,5.214,0,0,1,21.9,3.359a1,1,0,0,0-1.293-1.292,7.132,7.132,0,0,0-4.558,6.091A8.417,8.417,0,0,0,6.013,16.026,4.5,4.5,0,0,0,6.5,25H9.01a0.978,0.978,0,0,0,.1.447l1,2a1,1,0,0,0,1.789-.895L11.118,25H19.01a0.978,0.978,0,0,0,.1.447l1,2a1,1,0,0,0,1.789-.895L21.118,25H24A6,6,0,0,0,27.78,14.346ZM19.55,5.071c0,0.058,0,.115,0,0.173a7.2,7.2,0,0,0,7.371,7.206,5.173,5.173,0,0,1-.869.711,0.957,0.957,0,0,0-.153.15,5.958,5.958,0,0,0-3.558-.078A8.476,8.476,0,0,0,18,8.769,5.182,5.182,0,0,1,19.55,5.071ZM24,23H6.5a2.5,2.5,0,0,1,0-5,2.062,2.062,0,0,1,.354.024,1,1,0,0,0,1.169-1.1A3.9,3.9,0,0,1,8,16.5a6.493,6.493,0,0,1,12.764-1.693,1,1,0,0,0,1.424.632A3.931,3.931,0,0,1,24,15,4,4,0,0,1,24,23Z" style="fill:#158fcc"/></svg>