<?xml version="1.0" ?><svg data-name="Layer 7" id="Layer_7" viewBox="0 0 32 32" xmlns="http://www.w3.org/2000/svg"><title/><path d="M7.5,21a4.5,4.5,0,0,1-.21-8.99A7,7,0,1,1,20.96,9.36,5.762,5.762,0,0,1,23,9a6,6,0,0,1,0,12H7.5Z" style="fill:#a9e5ff"/><path d="M8.56,27.644a1,1,0,1,0-1.873.7l0.377,1a1,1,0,1,0,1.873-.7Z" style="fill:#158fcc"/><path d="M28.563,27.652a1,1,0,1,0-1.873.7l0.374,1a1,1,0,1,0,1.873-.7Z" style="fill:#158fcc"/><path d="M27.438,24.651l-1.28-3.413A7,7,0,0,0,21.77,8.107,7.928,7.928,0,0,0,14,2a8.009,8.009,0,0,0-8,8,8.144,8.144,0,0,0,.087,1.188,5.493,5.493,0,0,0-2.042,9.586,0.974,0.974,0,0,0,.018.578l1.5,4a1,1,0,1,0,1.873-.7L6.4,21.889A5.5,5.5,0,0,0,7.5,22h6.807l1.258,3.354a1,1,0,1,0,1.873-.7L16.443,22H23a6.991,6.991,0,0,0,1.262-.12l1.3,3.473A1,1,0,1,0,27.438,24.651ZM7.5,20a3.5,3.5,0,0,1-.164-6.991,1,1,0,0,0,.912-1.284A6.071,6.071,0,0,1,8,10a6.007,6.007,0,0,1,6-6,5.941,5.941,0,0,1,5.964,5.446,1,1,0,0,0,1.347.85A4.791,4.791,0,0,1,23,10a5,5,0,0,1,0,10H7.5Z" style="fill:#158fcc"/><path d="M18.563,27.652a1,1,0,1,0-1.873.7l0.374,1a1,1,0,1,0,1.873-.7Z" style="fill:#158fcc"/><path d="M11.929,23.629a1,1,0,1,0-1.857.742l0.8,2a1,1,0,1,0,1.857-.742Z" style="fill:#158fcc"/><path d="M21.929,23.629a1,1,0,1,0-1.857.742l0.8,2a1,1,0,1,0,1.857-.742Z" style="fill:#158fcc"/></svg>